<?xml version="1.0" standalone="no"?>
<!DOCTYPE svg PUBLIC "-//W3C//DTD SVG 1.1//EN" "http://www.w3.org/Graphics/SVG/1.1/DTD/svg11.dtd" >
<svg xmlns="http://www.w3.org/2000/svg">
<metadata>Generated by IcoMoon</metadata>
<defs>
<font id="icomoon" horiz-adv-x="1024">
<font-face units-per-em="1024" ascent="960" descent="-64" />
<missing-glyph horiz-adv-x="1024" />
<glyph unicode="&#x20;" horiz-adv-x="512" d="" />
<glyph unicode="&#xe900;" glyph-name="jd_checked" d="M846.848 847.36h-669.696c-40.96 0-74.752-33.792-74.752-74.752v-670.72c0-40.96 33.792-74.752 74.752-74.752h670.72c40.96 0 74.752 33.792 74.752 74.752v670.72c-1.024 40.96-34.816 74.752-75.776 74.752zM785.408 584.192l-321.536-321.536c-14.336-14.336-37.888-14.336-52.224 0l-173.056 173.056c-7.168 7.168-7.168 19.456 0 26.624 0 0 0 0 0 0l26.624 26.624c7.168 7.168 19.456 7.168 26.624 0 0 0 0 0 0 0l146.432-146.432 295.936 295.936c7.168 7.168 19.456 7.168 26.624 0l26.624-26.624c5.12-8.192 5.12-20.48-2.048-27.648 0 0 0 0 0 0z" />
<glyph unicode="&#xe901;" glyph-name="jd_dropdown_arrow" d="M467.968 188.928l-384 388.096c-24.576 24.576-24.576 64.512 0 89.088 23.552 24.576 63.488 24.576 88.064 1.024 0 0 0 0 1.024-1.024l338.944-343.040 338.944 343.040c23.552 24.576 63.488 24.576 88.064 1.024 0 0 0 0 1.024-1.024 24.576-24.576 24.576-64.512 0-89.088l-384-388.096c-23.552-23.552-63.488-24.576-88.064 0 0 0 0 0 0 0z" />
<glyph unicode="&#xe902;" glyph-name="jd_filter" d="M188.416 842.24v53.248h668.672v-53.248h-668.672zM166.912 880.128l19.456 14.336 54.272-25.6 263.168-358.4-43.008-31.744-293.888 401.408zM808.96 885.248l44.032-30.72-268.288-375.808-44.032 30.72 268.288 375.808zM455.68 521.728h53.248v-507.904h-53.248v507.904zM536.576 521.728h53.248v-348.16h-53.248v348.16zM539.648 213.504l46.080-26.624-106.496-186.368v108.544l60.416 104.448z" />
<glyph unicode="&#xe903;" glyph-name="jd_nights" d="M800.768 243.2c-261.12 0-473.088 211.968-473.088 473.088 0 60.416 11.264 120.832 34.816 177.152-242.688-98.304-359.424-373.76-261.12-615.424s373.76-358.4 615.424-261.12c118.784 48.128 212.992 142.336 261.12 261.12-56.32-23.552-116.736-34.816-177.152-34.816z" />
<glyph unicode="&#xe904;" glyph-name="jd_radiobutton_selected" d="M512-17.92c-257.024 0-465.92 208.896-465.92 465.92s208.896 465.92 465.92 465.92 465.92-208.896 465.92-465.92-208.896-465.92-465.92-465.92zM512 854.528c-224.256 0-406.528-182.272-406.528-406.528s182.272-406.528 406.528-406.528 406.528 182.272 406.528 406.528-182.272 406.528-406.528 406.528zM770.048 448c0-142.516-115.532-258.048-258.048-258.048s-258.048 115.532-258.048 258.048c0 142.516 115.532 258.048 258.048 258.048s258.048-115.532 258.048-258.048z" />
<glyph unicode="&#xe905;" glyph-name="jd_radiobutton_unselected" d="M512-17.92c-257.024 0-465.92 208.896-465.92 465.92s208.896 465.92 465.92 465.92 465.92-208.896 465.92-465.92-208.896-465.92-465.92-465.92zM512 854.528c-224.256 0-406.528-182.272-406.528-406.528s182.272-406.528 406.528-406.528 406.528 182.272 406.528 406.528-182.272 406.528-406.528 406.528z" />
<glyph unicode="&#xe906;" glyph-name="jd_unchecked" d="M826.368 38.4h-628.736c-52.224 0-95.232 43.008-95.232 95.232v628.736c0 52.224 43.008 95.232 95.232 95.232h629.76c52.224 0 95.232-43.008 95.232-95.232v-629.76c-1.024-51.2-44.032-94.208-96.256-94.208zM197.632 808.448c-24.576 0-45.056-20.48-45.056-45.056v-629.76c0-24.576 20.48-45.056 45.056-45.056h629.76c24.576 0 45.056 20.48 45.056 45.056v628.736c0 24.576-20.48 45.056-45.056 45.056h-629.76z" />
<glyph unicode="&#xe907;" glyph-name="jd_alert_message" d="M512 898.56c254.976 0 460.8-205.824 460.8-460.8s-205.824-460.8-460.8-460.8-460.8 205.824-460.8 460.8c0 253.952 206.848 460.8 460.8 460.8zM512 33.28c223.232 0 404.48 181.248 404.48 404.48s-181.248 404.48-404.48 404.48-404.48-181.248-404.48-404.48c0 0 0 0 0 0 1.024-223.232 181.248-403.456 404.48-404.48zM509.952 548.352c26.624 0 47.104 21.504 47.104 47.104 0 26.624-21.504 47.104-47.104 47.104-26.624 0-47.104-21.504-47.104-47.104 0 0 0 0 0 0 0-25.6 21.504-47.104 47.104-47.104v0zM510.976 477.696c15.36 0 28.672-12.288 28.672-28.672 0 0 0 0 0 0v-240.64c0-15.36-12.288-28.672-28.672-28.672-15.36 0-28.672 12.288-28.672 28.672v241.664c0 15.36 12.288 27.648 28.672 27.648 0 0 0 0 0 0v0z" />
<glyph unicode="&#xe908;" glyph-name="jd_email" d="M890.88 787.968h-737.28c-44.032-1.024-78.848-36.864-78.848-80.896v-538.624c0-44.032 34.816-79.872 78.848-80.896h737.28c44.032 1.024 78.848 36.864 78.848 80.896v538.624c1.024 44.032-34.816 79.872-78.848 80.896zM880.64 733.696l-356.352-365.568-360.448 365.568h716.8zM126.976 179.712v516.096l252.928-257.024-252.928-259.072zM163.84 141.824l252.928 259.072 89.088-90.112c10.24-10.24 26.624-10.24 36.864 0 0 0 0 0 0 0l86.016 89.088 251.904-258.048h-716.8zM917.504 179.712l-251.904 258.048 251.904 258.048v-516.096z" />
<glyph unicode="&#xe909;" glyph-name="jd_phone" d="M788.48 370.176c-15.36 17.408-37.888 27.648-61.44 27.648-23.552-1.024-46.080-10.24-62.464-27.648l-57.344-57.344c-5.12 2.048-9.216 5.12-14.336 7.168-6.144 3.072-12.288 6.144-18.432 9.216-57.344 36.864-107.52 82.944-149.504 136.192-19.456 23.552-35.84 49.152-49.152 76.8 15.36 13.312 28.672 27.648 41.984 40.96 5.12 5.12 10.24 10.24 15.36 15.36 34.816 29.696 38.912 82.944 8.192 116.736-3.072 3.072-5.12 6.144-8.192 8.192l-50.176 49.152c-6.144 6.144-11.264 11.264-17.408 17.408-11.264 11.264-22.528 22.528-34.816 33.792-16.384 16.384-37.888 26.624-61.44 26.624s-45.056-10.24-61.44-26.624c0 0 0 0 0 0l-61.44-62.464c-22.528-22.528-36.864-52.224-39.936-83.968-2.048-46.080 6.144-92.16 23.552-134.144 32.768-84.992 79.872-162.816 139.264-231.424 77.824-93.184 175.104-168.96 285.696-222.208 50.176-25.6 104.448-41.984 159.744-47.104 4.096 0 8.192 0 11.264 0 39.936-1.024 77.824 15.36 105.472 45.056 0 0 0 1.024 1.024 1.024 10.24 11.264 20.48 22.528 31.744 32.768 8.192 7.168 15.36 15.36 23.552 23.552 17.408 16.384 26.624 38.912 27.648 62.464 0 23.552-10.24 46.080-27.648 62.464l-99.328 100.352zM840.704 176.64c0 0 0-1.024 0 0 1.024 1.024-32.768-35.84-51.2-53.248s-34.816-17.408-63.488-17.408h-8.192c-49.152 5.12-97.28 20.48-140.288 44.032-101.376 48.128-190.464 118.784-262.144 205.824-55.296 61.44-99.328 132.096-129.024 208.896-14.336 31.744-21.504 66.56-18.432 102.4 1.024 20.48 10.24 39.936 25.6 53.248l52.224 53.248c7.168 7.168 17.408 12.288 27.648 12.288 10.24-1.024 19.456-5.12 26.624-12.288l1.024-1.024c11.264-10.24 13.312-11.264 24.576-22.528 6.144-6.144 11.264-11.264 17.408-17.408l50.176-49.152c19.456-19.456 11.264-30.72-8.192-50.176-5.12-5.12-10.24-10.24-15.36-15.36-15.36-15.36-26.624-28.672-41.984-43.008 0 0-1.024-1.024-1.024-1.024-12.288-12.288-16.384-30.72-11.264-47.104 0 0 0-1.024 1.024-2.048 16.384-34.816 37.888-67.584 63.488-97.28v0c46.080-58.368 101.376-107.52 162.816-148.48 7.168-4.096 14.336-8.192 22.528-12.288 6.144-3.072 12.288-6.144 18.432-10.24 1.024 0 1.024-1.024 2.048-1.024 9.216-3.072 19.456-5.12 29.696-6.144 12.288 1.024 24.576 5.12 34.816 12.288l55.296 55.296c7.168 8.192 17.408 13.312 27.648 13.312 10.24-1.024 19.456-5.12 26.624-13.312v0l83.968-87.040c15.36-12.288 18.432-33.792 7.168-50.176-6.144 1.024-8.192-2.048-10.24-3.072v0z" />
<glyph unicode="&#xf001;" glyph-name="add" d="M981.333 525.653h-391.68v391.68h-155.307v-391.68h-391.68v-155.307h391.68v-391.68h155.307v391.68h391.68z" />
<glyph unicode="&#xf002;" glyph-name="arrow-oneway" d="M1011.39 475.496l-236.563 236.184c-6.936 6.948-16.525 11.246-27.117 11.246-21.161 0-38.316-17.155-38.316-38.316 0-10.569 4.279-20.138 11.199-27.070l170.666-170.666h-853.333c-21.155 0-38.305-17.15-38.305-38.305s17.15-38.305 38.305-38.305v0h853.333l-170.667-170.667c-6.92-6.931-11.199-16.501-11.199-27.070 0-21.161 17.155-38.316 38.316-38.316 10.592 0 20.181 4.298 27.116 11.246l0.001 0.001 236.563 236.184c6.929 6.874 11.218 16.4 11.218 26.927s-4.289 20.053-11.216 26.925l-0.002 0.002z" />
<glyph unicode="&#xf003;" glyph-name="arrow-twoway" d="M966.377 258.839h-837.818l167.564 167.564c6.814 6.814 11.028 16.227 11.028 26.624 0 20.795-16.857 37.652-37.652 37.652-10.397 0-19.81-4.214-26.624-11.028l-231.796-231.796c-6.916-6.766-11.204-16.194-11.204-26.624s4.288-19.858 11.197-26.617l232.269-232.269c6.814-6.814 16.227-11.028 26.624-11.028 20.795 0 37.652 16.857 37.652 37.652 0 10.397-4.214 19.81-11.028 26.624l-167.564 167.564h837.818c20.796 0 37.655 16.859 37.655 37.655s-16.859 37.655-37.655 37.655v0zM1012.922 702.976l-232.169 231.983c-6.81 6.822-16.224 11.042-26.624 11.042-20.776 0-37.619-16.843-37.619-37.619 0-10.377 4.201-19.772 10.996-26.578l167.563-167.563h-837.818c-20.771 0-37.609-16.838-37.609-37.609s16.838-37.609 37.609-37.609v0h837.818l-167.564-167.564c-6.794-6.805-10.995-16.201-10.995-26.577 0-20.776 16.843-37.619 37.619-37.619 10.4 0 19.814 4.22 26.623 11.041l0.001 0.001 232.262 231.889c6.775 6.745 10.968 16.078 10.968 26.392 0 10.359-4.23 19.731-11.058 26.481l-0.003 0.003z" />
<glyph unicode="&#xf004;" glyph-name="back-arrow" d="M719.686 960l-496.268-525.871 468.713-498.129 82.665 83.037-413.51 415.092 441.158 442.833z" />
<glyph unicode="&#xf005;" glyph-name="baggage" d="M506.88 532.48h-21.333v179.2h-186.027c0 42.667 41.813 46.080 93.013 46.080s93.013-3.413 93.013-46.080h43.52c0.853 0 0.853 6.827 1.707 7.68-1.707 49.493-63.147 87.040-138.24 87.040-76.8 0-139.093-43.52-139.093-94.72h44.373v-179.2h-51.2v179.2h-101.547c-51.2 0-103.253-32.427-103.253-83.627v-368.64h674.133v77.653c-93.867 12.8-183.467 93.013-209.067 195.413zM41.813 164.693c0-51.2 52.053-93.013 103.253-93.013h494.080c51.2 0 76.8 41.813 76.8 93.013v43.52h-674.133v-43.52zM761.173 824.32c-122.027 0-221.013-98.987-221.013-221.013s98.987-221.013 221.013-221.013c122.027 0 221.013 98.987 221.013 221.013s-98.987 221.013-221.013 221.013zM793.6 599.893l78.507-78.507c1.707-1.707 3.413-5.12 3.413-7.68 0-1.707-0.853-5.12-3.413-7.68l-14.507-14.507c-1.707-1.707-5.12-3.413-7.68-3.413-1.707 0-5.12 0.853-7.68 3.413l-78.507 78.507c-1.707 1.707-5.12 1.707-7.68 0l-78.507-78.507c-1.707-1.707-5.12-3.413-7.68-3.413-1.707 0-5.12 0.853-7.68 3.413l-14.507 14.507c-1.707 1.707-3.413 5.12-3.413 7.68 0 1.707 0.853 5.12 3.413 7.68l78.507 78.507c1.707 1.707 1.707 5.12 0 7.68l-78.507 78.507c-1.707 1.707-3.413 5.12-3.413 7.68 0 1.707 0.853 5.12 3.413 7.68l14.507 14.507c1.707 1.707 5.12 3.413 7.68 3.413 1.707 0 5.12-0.853 7.68-3.413l78.507-78.507c1.707-1.707 5.12-1.707 7.68 0l78.507 78.507c1.707 1.707 4.267 3.413 7.68 3.413 1.707 0 5.12-0.853 7.68-3.413l14.507-14.507c1.707-1.707 3.413-5.12 3.413-7.68 0-1.707-0.853-5.12-3.413-7.68l-78.507-79.36c-1.707-1.707-1.707-5.12 0-6.827z" />
<glyph unicode="&#xf006;" glyph-name="bus" d="M308.907 375.467c-43.52 0-79.36-35.84-79.36-79.36s35.84-79.36 79.36-79.36c43.52 0 79.36 35.84 79.36 79.36s-35.84 79.36-79.36 79.36v0zM308.907 279.893c-8.533 0-16.213 6.827-16.213 16.213 0 8.533 6.827 16.213 16.213 16.213 8.533 0 16.213-6.827 16.213-16.213s-7.68-16.213-16.213-16.213v0zM718.507 375.467c-43.52 0-79.36-35.84-79.36-79.36s35.84-79.36 79.36-79.36c43.52 0 79.36 35.84 79.36 79.36-0.853 43.52-35.84 79.36-79.36 79.36v0zM718.507 279.893c-8.533 0-16.213 6.827-16.213 16.213 0 8.533 6.827 16.213 16.213 16.213 8.533 0 16.213-6.827 16.213-16.213-0.853-9.387-7.68-16.213-16.213-16.213v0zM949.76 688.64h-24.747v69.973c0 76.8-62.293 139.947-139.947 139.947h-543.573c-76.8 0-139.947-62.293-139.947-139.947v-69.973h-27.307c-17.92 0-31.573-14.507-31.573-31.573v-111.787c0-17.92 14.507-31.573 31.573-31.573h27.307v-272.213c0-43.52 19.627-81.92 50.347-107.52 0 0 0 0 0 0v-53.76c0-45.227 36.693-82.773 82.773-82.773h55.467c45.227 0 82.773 36.693 82.773 82.773v22.187h280.747v-22.187c0-45.227 36.693-82.773 82.773-82.773h55.467c45.227 0 82.773 36.693 82.773 82.773v53.76c0 0 0 0 0 0 30.72 25.6 50.347 64 50.347 107.52v272.213h24.747c17.92 0 31.573 14.507 31.573 31.573v111.787c0 17.92-14.507 31.573-31.573 31.573v0zM785.92 165.547h-544.427c-41.813 0-75.947 34.133-75.947 75.947v174.933h696.32v-174.080c0-42.667-34.133-76.8-75.947-76.8v0zM165.547 479.573v250.88h696.32v-250.88h-696.32zM241.493 834.56h544.427c29.013 0 54.613-17.067 67.413-40.96h-679.253c12.8 24.747 38.4 40.96 67.413 40.96v0zM309.76 80.213c0-10.24-8.533-18.773-18.773-18.773h-55.467c-10.24 0-18.773 8.533-18.773 18.773v24.747c8.533-1.707 17.067-2.56 25.6-2.56h68.267v-22.187zM811.52 80.213c0-10.24-8.533-18.773-18.773-18.773h-55.467c-10.24 0-18.773 8.533-18.773 18.773v22.187h68.267c8.533 0 17.067 0.853 25.6 2.56v-24.747z" />
<glyph unicode="&#xf007;" glyph-name="chair" d="M601.6 170.667c0-37.547 0-75.947 0-113.493 69.973-1.707 139.093-3.413 209.067-5.12 3.413-12.8 6.827-26.453 10.24-39.253-6.827-8.533-13.653-16.213-19.627-24.747-118.613-1.707-423.253-28.16-502.613 14.507 1.707 12.8 3.413 26.453 5.12 39.253 3.413 5.12 6.827 10.24 10.24 14.507 66.56 0 132.267 0 198.827 0 0 37.547 0 75.947 0 113.493-61.44-0.853-131.413-0.853-179.2 10.24-81.067 110.933-233.813 509.44-184.32 711.68 22.187 15.36 34.133 23.893 74.24 24.747 20.48-9.387 29.867-14.507 40.107-34.987 25.6-48.64-5.12-134.827 10.24-197.973 17.92-49.493 36.693-98.987 54.613-148.48 119.467-1.707 238.933-3.413 358.4-5.12 6.827-8.533 13.653-16.213 19.627-24.747 0-29.867-5.12-37.547-14.507-54.613-109.227-1.707-218.453-3.413-328.533-5.12 11.947-31.573 23.040-62.293 34.987-93.867 138.24 12.8 329.387 41.813 472.747 10.24 5.12-10.24 10.24-19.627 14.507-29.867-5.12-45.227-21.333-133.12-54.613-153.6-47.787-23.040-164.693-8.533-229.547-7.68z" />
<glyph unicode="&#xf008;" d="M512 917.333c259.413 0 469.333-209.92 469.333-469.333s-209.92-469.333-469.333-469.333c-259.413 0-469.333 209.92-469.333 469.333s209.92 469.333 469.333 469.333z" />
<glyph unicode="&#xf009;" d="M477.867 302.933c-6.827-7.68-19.627-8.533-28.16-2.56l-132.267 97.28c-8.533 5.973-10.24 17.92-3.413 26.453l17.067 22.187c5.973 8.533 17.92 10.24 26.453 4.267l85.333-62.293c8.533-5.973 21.333-5.12 28.16 2.56l190.293 203.093c6.827 7.68 18.773 7.68 26.453 0.853l20.48-18.773c7.68-6.827 7.68-18.773 0.853-26.453l-231.253-246.613z" />
<glyph unicode="&#xf010;" glyph-name="close" d="M61.44-2.56c25.6-25.6 66.56-25.6 91.307 0l358.4 358.4 358.4-358.4c25.6-25.6 66.56-25.6 91.307 0 25.6 25.6 25.6 66.56 0 91.307l-358.4 358.4 358.4 358.4c25.6 25.6 25.6 66.56 0 91.307-25.6 25.6-66.56 25.6-91.307 0l-358.4-358.4-358.4 358.4c-25.6 25.6-66.56 25.6-91.307 0-25.6-25.6-25.6-66.56 0-91.307l358.4-358.4-358.4-358.4c-24.747-24.747-24.747-65.707 0-91.307z" />
<glyph unicode="&#xf011;" glyph-name="decrease" d="M512 885.76c241.493 0 437.76-196.267 437.76-437.76s-196.267-437.76-437.76-437.76-437.76 196.267-437.76 437.76 196.267 437.76 437.76 437.76zM512 917.333c-259.413 0-469.333-209.92-469.333-469.333s209.92-469.333 469.333-469.333c259.413 0 469.333 209.92 469.333 469.333s-209.92 469.333-469.333 469.333v0zM316.587 471.040h390.827v-46.933h-390.827v46.933z" />
<glyph unicode="&#xf012;" glyph-name="edit" d="M626.347 745.813l191.147-182.613-482.987-462.507-191.147 182.613 482.987 462.507zM962.56 789.333l-85.333 81.067c-33.28 31.573-86.187 31.573-119.467 0l-81.92-77.653 191.147-182.613 95.573 91.307c24.747 24.747 24.747 64 0 87.893zM43.52 26.453c-3.413-15.36 10.24-28.16 26.453-24.747l212.48 49.493-191.147 182.613-47.787-207.36z" />
<glyph unicode="&#xf013;" glyph-name="filter" d="M954.88 899.413c-4.267 11.093-13.653 17.92-24.747 17.92h-837.12c-10.24 0-19.627-6.827-23.893-17.92s-3.413-23.893 3.413-32.427l321.707-446.293v-411.307c0-11.093 5.12-20.48 12.8-26.453 4.267-3.413 9.387-4.267 14.507-4.267 4.267 0 8.533 0.853 11.947 3.413l180.907 102.4c9.387 5.12 15.36 16.213 15.36 27.307v308.907l321.707 446.293c6.827 9.387 8.533 22.187 3.413 32.427zM581.973 451.413c-4.267-5.12-5.973-12.8-5.973-19.627v-301.227l-127.147-71.68v372.907c0 6.827-2.56 14.507-5.973 19.627l-292.693 404.48h722.773l-290.987-404.48z" />
<glyph unicode="&#xf014;" glyph-name="flight" d="M981.333 824.32c0 51.2-41.813 93.013-93.013 93.013-81.067 0-157.867-31.573-215.040-88.747l-83.627-83.627-291.84 58.027-92.16 18.773c-34.133 6.827-69.12-3.413-93.013-28.16-45.227-45.227-39.253-120.32 12.8-157.013l209.067-149.333c-25.6-29.867-49.493-62.293-70.827-95.573h-135.68c-46.933 0-85.333-38.4-85.333-85.333 0-32.427 18.773-62.293 46.933-75.947l78.507-39.253-34.987-81.067c-11.093-25.6 15.36-52.053 40.96-40.96l81.067 34.987 39.253-78.507c14.507-28.16 44.373-46.933 75.947-46.933 46.933 0 85.333 38.4 85.333 85.333v136.533c33.28 21.333 65.707 44.373 95.573 70.827l149.333-209.067c36.693-52.053 111.787-58.027 157.013-12.8 24.747 24.747 34.987 59.733 28.16 93.013l-18.773 92.16-58.027 291.84 83.627 83.627c57.173 56.32 88.747 133.12 88.747 214.187zM161.28 686.933v0c-35.84 25.6-11.947 82.773 32.427 74.24 5.12-0.853 332.8-66.56 343.893-69.12l-160.427-159.573-215.893 154.453zM192 248.32l-74.24 37.547c-7.68 4.267-12.8 11.947-12.8 21.333 0 12.8 10.24 23.040 23.040 23.040h101.547c-14.507-28.16-20.48-43.52-37.547-81.92zM393.387 64c0-12.8-10.24-23.040-23.040-23.040-8.533 0-17.067 5.12-21.333 12.8l-37.547 75.093c38.4 16.213 53.76 23.040 81.067 36.693v-101.547zM824.32 128.853c8.533-42.667-47.787-68.267-74.24-32.427 0 0 0 0 0 0l-153.6 216.747 159.573 159.573c6.827-32.427 61.44-307.2 68.267-343.893zM547.84 352.427c-111.787-111.787-212.48-146.773-327.68-196.267 49.493 114.347 83.627 215.040 195.413 326.827 26.453 26.453 285.013 285.013 301.227 301.227 46.080 46.080 106.667 70.827 171.52 70.827 17.067 0 30.72-13.653 30.72-30.72 0-64.853-25.6-125.44-70.827-171.52-11.093-11.093-289.28-289.28-300.373-300.373z" />
<glyph unicode="&#xf015;" glyph-name="flightdetails" d="M289.28-21.333l446.293 469.333-446.293 469.333 10.24-74.24 375.467-395.093-376.32-395.093-9.387-74.24z" />
<glyph unicode="&#xf016;" glyph-name="hotel" d="M945.493 181.76h-866.133c-19.627 0-35.84 16.213-35.84 35.84v174.933c0 19.627 16.213 35.84 35.84 35.84h368.64v134.827c0 42.667 13.653 79.36 40.107 105.813s63.147 40.107 105.813 40.107h246.613c85.333 0 139.947-57.173 139.947-145.92l0.853-345.6c0-9.387-3.413-18.773-10.24-25.6-6.827-5.973-16.213-10.24-25.6-10.24zM115.2 254.293h793.6l-0.853 308.907c0 49.493-23.040 74.24-67.413 74.24h-245.76c-46.933 0-74.24-27.307-74.24-74.24v-169.813c0-19.627-16.213-35.84-35.84-35.84h-368.64l-0.853-103.253zM285.013 446.293c-81.067 0-147.627 65.707-147.627 147.627s65.707 147.627 147.627 147.627 147.627-66.56 147.627-148.48-66.56-146.773-147.627-146.773zM285.013 668.16c-41.813 0-75.093-34.133-75.093-75.093s34.133-75.093 75.093-75.093 75.093 34.133 75.093 75.093-34.133 75.093-75.093 75.093zM80.213 56.32c-20.48 0-37.547 16.213-37.547 37.547v708.267c0 20.48 16.213 37.547 37.547 37.547s37.547-16.213 37.547-37.547v-709.12c-0.853-19.627-17.067-36.693-37.547-36.693zM943.787 56.32c-20.48 0-37.547 16.213-37.547 37.547v130.56c0 20.48 16.213 37.547 37.547 37.547 20.48 0 37.547-16.213 37.547-37.547v-131.413c0-19.627-17.067-36.693-37.547-36.693z" />
<glyph unicode="&#xf017;" glyph-name="increase" d="M512 885.76c241.493 0 437.76-196.267 437.76-437.76s-196.267-437.76-437.76-437.76c-241.493 0-437.76 196.267-437.76 437.76s196.267 437.76 437.76 437.76zM512 917.333c-259.413 0-469.333-209.92-469.333-469.333s209.92-469.333 469.333-469.333c259.413 0 469.333 209.92 469.333 469.333s-209.92 469.333-469.333 469.333v0zM535.893 670.72h-51.2v-195.413h-182.613v-46.933h182.613v-202.24h51.2v201.387h186.027v46.933h-186.027v196.267z" />
<glyph unicode="&#xf018;" glyph-name="more" d="M42.667 799.573v-58.88h938.667v58.88h-938.667zM42.667 418.987h938.667v58.88h-938.667v-58.88zM42.667 95.573h938.667v58.88h-938.667v-58.88z" />
<glyph unicode="&#xf019;" glyph-name="multiair" d="M471.040 605.013l-46.933-21.333c-3.413-1.707-5.973-3.413-8.533-5.973l-76.8-76.8-264.533 31.573c-5.12 0.853-9.387-0.853-12.8-4.267l-14.507-14.507c-7.68-7.68-5.12-21.333 4.267-25.6l189.44-85.333-54.613-54.613h-93.867c-4.267 0-8.533-1.707-11.093-4.267l-7.68-7.68c-7.68-7.68-5.12-21.333 5.12-25.6l80.213-34.133 34.133-80.213c4.267-10.24 17.92-12.8 25.6-5.12l7.68 7.68c2.56 2.56 4.267 6.827 4.267 11.093v95.573l54.613 54.613 85.333-189.44c4.267-10.24 17.92-12.8 25.6-4.267l14.507 14.507c3.413 3.413 5.12 8.533 4.267 12.8l-31.573 264.533 76.8 76.8c2.56 2.56 4.267 5.12 5.973 8.533l21.333 46.933c4.267 8.533-5.973 18.773-16.213 14.507zM965.12 733.867l-46.933-21.333c-3.413-1.707-5.973-3.413-8.533-5.973l-76.8-76.8-264.533 31.573c-5.12 0.853-9.387-0.853-12.8-4.267l-14.507-14.507c-7.68-7.68-5.12-21.333 4.267-25.6l189.44-85.333-54.613-54.613h-94.72c-4.267 0-8.533-1.707-11.093-4.267l-7.68-7.68c-7.68-7.68-5.12-21.333 5.12-25.6l80.213-34.133 34.133-80.213c4.267-10.24 17.92-12.8 25.6-5.12l7.68 7.68c2.56 2.56 4.267 6.827 4.267 11.093v95.573l54.613 54.613 85.333-189.44c4.267-10.24 17.92-12.8 25.6-4.267l14.507 14.507c3.413 3.413 5.12 8.533 4.267 12.8l-31.573 264.533 76.8 76.8c2.56 2.56 4.267 5.12 5.973 8.533l21.333 46.933c4.267 9.387-5.973 19.627-15.36 14.507z" />
<glyph unicode="&#xf020;" glyph-name="oneway" d="M512 881.493c238.933 0 433.493-194.56 433.493-433.493s-194.56-433.493-433.493-433.493c-238.933 0-433.493 194.56-433.493 433.493s194.56 433.493 433.493 433.493zM512 917.333c-259.413 0-469.333-209.92-469.333-469.333s209.92-469.333 469.333-469.333c259.413 0 469.333 209.92 469.333 469.333s-209.92 469.333-469.333 469.333v0zM594.773 525.653c0-6.827 2.56-14.507 8.533-19.627l29.867-29.867h-309.76c-15.36 0-28.16-12.8-28.16-28.16s12.8-28.16 28.16-28.16h308.907l-29.013-29.013c-5.12-5.12-8.533-12.8-8.533-19.627s2.56-14.507 8.533-19.627c11.093-11.093 29.013-11.093 40.107 0 1.707 1.707 4.267 4.267 5.973 5.973 5.12 5.12 10.24 10.24 15.36 15.36 6.827 6.827 12.8 12.8 19.627 19.627 5.973 5.973 12.8 12.8 18.773 18.773s11.947 11.947 17.92 18.773c5.973 6.827 9.387 15.36 6.827 24.747-0.853 2.56-1.707 5.12-2.56 6.827-3.413 5.973-9.387 11.093-14.507 16.213-5.973 5.973-11.947 11.947-18.773 18.773-7.68 7.68-14.507 14.507-22.187 22.187-5.973 5.973-12.8 12.8-18.773 18.773-3.413 3.413-5.973 5.973-9.387 9.387 0 0 0 0 0 0-11.093 11.093-29.013 11.093-40.107 0-4.267-7.68-6.827-14.507-6.827-21.333z" />
<glyph unicode="&#xf021;" glyph-name="onewayheader" d="M77.653 482.987h783.36l-157.013 156.16c-13.653 13.653-13.653 35.84 0 49.493s35.84 13.653 49.493 0l216.747-215.893c13.653-13.653 13.653-35.84 0-49.493l-216.747-215.893c-6.827-6.827-16.213-10.24-24.747-10.24s-17.92 3.413-24.747 10.24c-13.653 13.653-13.653 35.84 0 49.493l157.013 156.16h-783.36c-19.627 0-34.987 15.36-34.987 34.987s15.36 34.987 34.987 34.987z" />
<glyph unicode="&#xf022;" glyph-name="passengerarrowdown" d="M289.28-21.333l446.293 469.333-446.293 469.333 10.24-74.24 375.467-395.093-376.32-395.093-9.387-74.24z" />
<glyph unicode="&#xf023;" glyph-name="passengerarrowup" d="M89.6 192.853l-46.933 46.933 469.333 462.507 469.333-462.507-46.933-46.933-422.4 413.013-422.4-413.013z" />
<glyph unicode="&#xf024;" glyph-name="pricesort" d="M164.693 320l347.307-341.333 347.307 341.333-52.907 52.053-259.413-256.853v802.133h-69.12v-802.133l-260.267 256.853-52.907-52.053z" />
<glyph unicode="&#xf025;" glyph-name="proceed" d="M754.347 493.227l-396.8 405.333c-23.893 24.747-63.147 24.747-87.893 0-23.893-24.747-23.893-64.853 0-89.6l290.987-297.813c0 0 41.813-49.493 41.813-70.827s-41.813-55.467-41.813-55.467l-290.987-297.813c-23.893-24.747-23.893-64.853 0-89.6 11.947-12.8 28.16-18.773 43.52-18.773s31.573 5.973 43.52 18.773l397.653 406.187c24.747 23.893 24.747 64.853 0 89.6z" />
<glyph unicode="&#xf026;" glyph-name="rupee" d="M238.933 917.333h611.84c-32.427-57.173-57.173-81.92-65.707-89.6h-162.987c24.747-24.747 40.96-57.173 48.64-98.133h171.52c-32.427-57.173-48.64-89.6-57.173-89.6h-105.813c0-32.427-16.213-65.707-40.96-105.813-40.96-40.96-73.387-73.387-105.813-81.92-57.173-32.427-114.347-40.96-171.52-40.96v0c0-8.533 16.213-24.747 40.96-48.64l302.080-366.933v-16.213h-139.093c-236.373 268.8-359.253 407.040-359.253 407.040v81.92c24.747 0 48.64-8.533 73.387-8.533 139.093 16.213 220.16 57.173 253.44 146.773 8.533 16.213 8.533 24.747 8.533 40.96h-366.933c40.107 57.173 56.32 90.453 64.853 90.453h285.867c-16.213 32.427-48.64 57.173-98.133 73.387-32.427 16.213-57.173 16.213-89.6 16.213h-163.84c40.96 64.853 65.707 89.6 65.707 89.6z" />
<glyph unicode="&#xf027;" glyph-name="search" horiz-adv-x="1025" d="M1025.305-6.583l-304.050 303.956c56.805 69.305 91.234 158.853 91.234 256.442 0 224.239-181.782 406.021-406.021 406.021s-406.021-181.782-406.021-406.021c0-224.239 181.782-406.021 406.021-406.021 98.053 0 187.987 34.757 258.155 92.623l-0.693-0.555 303.863-303.77zM406.3 228.864c-179.413 0.053-324.835 145.508-324.835 324.928 0 179.453 145.475 324.928 324.928 324.928 179.42 0 324.875-145.422 324.928-324.83v-0.005c0-179.505-145.517-325.022-325.022-325.022v0z" />
<glyph unicode="&#xf028;" glyph-name="train" d="M662.187 480.427c75.947 0 138.24 62.293 138.24 138.24v69.973c0 75.947-62.293 138.24-138.24 138.24h-300.373c-75.947 0-138.24-62.293-138.24-138.24v-69.973c0-75.947 62.293-138.24 138.24-138.24h300.373zM280.747 618.667v69.973c0 44.373 35.84 81.067 81.067 81.067h301.227c44.373 0 81.067-35.84 81.067-81.067v-69.973c0-44.373-35.84-81.067-81.067-81.067h-301.227c-44.373 0-81.067 36.693-81.067 81.067zM456.533 362.667c0 49.493-40.107 89.6-89.6 89.6s-89.6-40.107-89.6-89.6c0-49.493 40.107-89.6 89.6-89.6s89.6 40.107 89.6 89.6zM334.507 362.667c0 17.92 14.507 32.427 32.427 32.427s32.427-14.507 32.427-32.427c0-17.92-14.507-32.427-32.427-32.427s-32.427 14.507-32.427 32.427zM657.067 452.267c-49.493 0-89.6-40.107-89.6-89.6s40.107-89.6 89.6-89.6c49.493 0 89.6 40.107 89.6 89.6s-40.107 89.6-89.6 89.6zM657.067 330.24c-17.92 0-32.427 14.507-32.427 32.427s14.507 32.427 32.427 32.427c17.92 0 32.427-14.507 32.427-32.427s-14.507-32.427-32.427-32.427zM783.36 53.76l66.56-66.56c5.973-5.973 12.8-8.533 20.48-8.533s14.507 2.56 20.48 8.533c11.093 11.093 11.093 29.013 0 40.96l-75.093 75.093c0 0 0 0 0 0l-70.827 70.827c86.187 33.28 146.773 116.907 146.773 214.187v299.52c0 126.293-103.253 229.547-229.547 229.547h-300.373c-127.147 0-229.547-103.253-229.547-229.547v-301.227c0-97.28 61.44-180.907 146.773-214.187l-145.067-145.067c-11.093-11.093-11.093-29.013 0-40.96 5.973-5.973 12.8-8.533 20.48-8.533s14.507 2.56 20.48 8.533l66.56 66.56h541.867zM297.813 110.933l47.787 47.787c5.12 0 10.24-0.853 16.213-0.853h301.227c5.12 0 11.093 0 16.213 0.853l47.787-47.787h-429.227zM189.44 387.413v300.373c0 94.72 76.8 171.52 171.52 171.52h301.227c94.72 0 171.52-76.8 171.52-171.52v-301.227c0-94.72-76.8-171.52-171.52-171.52h-300.373c-94.72 0-172.373 77.653-172.373 172.373z" />
<glyph unicode="&#xf029;" glyph-name="twoway" d="M713.387 378.88h-308.907l29.867 29.867c11.093 11.093 11.093 29.013 0 40.107s-29.013 11.093-40.107 0l-77.653-77.653c0 0 0 0 0 0-4.267-4.267-7.68-11.093-7.68-17.067-0.853-6.827 0.853-12.8 4.267-18.773 0.853-1.707 2.56-2.56 3.413-4.267v0l76.8-76.8c11.093-11.093 29.013-11.093 40.107 0s11.093 29.013 0 40.107l-29.013 29.013h308.907c15.36 0 28.16 12.8 28.16 28.16 0 14.507-12.8 27.307-28.16 27.307zM336.213 508.587h308.907l-29.013-29.013c-5.12-5.12-8.533-12.8-8.533-19.627s2.56-14.507 8.533-19.627c11.093-11.093 29.013-11.093 40.107 0 1.707 1.707 4.267 4.267 5.973 5.973 5.12 5.12 10.24 10.24 15.36 15.36 6.827 6.827 12.8 12.8 19.627 19.627 5.973 5.973 12.8 12.8 18.773 18.773s11.947 11.947 17.92 18.773c5.973 6.827 9.387 15.36 6.827 24.747-0.853 2.56-1.707 5.12-2.56 6.827-3.413 5.973-9.387 11.093-14.507 16.213-5.973 5.973-11.947 11.947-18.773 18.773-7.68 7.68-14.507 14.507-22.187 22.187-5.973 5.973-12.8 12.8-18.773 18.773-3.413 3.413-5.973 5.973-9.387 9.387 0 0 0 0 0 0-11.093 11.093-29.013 11.093-40.107 0-5.12-5.12-8.533-12.8-8.533-19.627s2.56-14.507 8.533-19.627l29.867-29.867h-308.053c-15.36 0-28.16-12.8-28.16-28.16 0-17.067 12.8-29.867 28.16-29.867zM524.8 877.227c238.933 0 433.493-194.56 433.493-433.493s-194.56-433.493-433.493-433.493c-238.933 0-433.493 194.56-433.493 433.493s194.56 433.493 433.493 433.493zM524.8 913.067c-259.413 0-469.333-209.92-469.333-469.333s209.92-469.333 469.333-469.333c259.413 0 469.333 209.92 469.333 469.333s-209.92 469.333-469.333 469.333v0z" />
<glyph unicode="&#xf030;" glyph-name="twowayheader" d="M77.653 600.747h782.507l-156.16-155.307c-13.653-13.653-13.653-35.84 0-49.493 6.827-6.827 16.213-10.24 24.747-10.24 9.387 0 17.92 3.413 24.747 10.24l216.747 215.893c13.653 13.653 13.653 35.84 0 49.493l-216.747 215.040c-13.653 13.653-35.84 13.653-49.493 0s-13.653-35.84 0-49.493l157.013-156.16h-783.36c-19.627 0-34.987-15.36-34.987-34.987s15.36-34.987 34.987-34.987zM946.347 295.253h-783.36l157.013 156.16c13.653 13.653 13.653 35.84 0 49.493s-35.84 13.653-49.493 0l-216.747-215.893c-13.653-13.653-13.653-35.84 0-49.493l216.747-215.893c6.827-6.827 16.213-10.24 24.747-10.24 9.387 0 17.92 3.413 24.747 10.24 13.653 13.653 13.653 35.84 0 49.493l-157.013 156.16h782.507c19.627 0 34.987 15.36 34.987 34.987 0.853 19.627-14.507 34.987-34.133 34.987z" />
<glyph unicode="&#xf031;" glyph-name="unchecked" d="M516.267-25.6c-258.56 0-469.333 210.773-469.333 469.333s210.773 469.333 469.333 469.333c258.56 0 469.333-210.773 469.333-469.333s-210.773-469.333-469.333-469.333zM516.267 892.587c-247.467 0-448.853-201.387-448.853-448.853s201.387-448.853 448.853-448.853c247.467 0 448.853 201.387 448.853 448.853s-201.387 448.853-448.853 448.853z" />
<glyph unicode="&#xf9090;" glyph-name="clock" d="M512 917.333c-258.56 0-469.333-210.773-469.333-469.333s210.773-469.333 469.333-469.333c258.56 0 469.333 210.773 469.333 469.333s-210.773 469.333-469.333 469.333zM512 37.547c-226.133 0-410.453 184.32-410.453 410.453s184.32 410.453 410.453 410.453c226.133 0 410.453-184.32 410.453-410.453s-184.32-410.453-410.453-410.453zM709.973 480.427h-168.96v271.36c0 16.213-12.8 29.013-29.013 29.013s-29.013-12.8-29.013-29.013v-301.227c0-16.213 12.8-29.013 29.013-29.013h197.973c16.213 0 29.013 12.8 29.013 29.013s-12.8 29.867-29.013 29.867z" />
</font>
</defs>
</svg>
